# xmcd CD database file
#
# Track frame offsets:
#	150
#	17250
#	35042
#	52917
#	67825
#	88037
#	101987
#	116667
#	135865
#	151402
#	166580
#	185302
#
# Disc length: 2656 seconds
#
# Revision: 0
# Processed by: cddbd v1.4PL0 Copyright (c) Steve Scherf et al.
# Submitted via: Feurio! 1.65 - http://www.feurio.com
#
DISCID=890a5e0c
DTITLE=Rodney Crowell - Greatest Hits
DYEAR=1993
DGENRE=Country
TTITLE0=Lovin' All Night -1992
TTITLE1=Even Cowgirls Get The Blues -1979
TTITLE2=What Kind Of Love -1992
TTITLE3=I Couldn't Leave You If I Tried -1990
TTITLE4=After All This Time -1984
TTITLE5=Talking To A Stranger -1991
TTITLE6=She's Crazy For Leaving -1981
TTITLE7=Many A Long and Lonesome Highway
TTITLE8=If Looks Could Kill -1990
TTITLE9=It's Such A Small World
TTITLE10=Things I Wish I'd Said -1990
TTITLE11=Standing On A Rock -1993
EXTD=Columbia-1993
EXTT0=
EXTT1=
EXTT2=
EXTT3=
EXTT4=
EXTT5=
EXTT6=
EXTT7=
EXTT8=
EXTT9=
EXTT10=
EXTT11=
PLAYORDER=
